<mxfile host="app.diagrams.net" agent="Mozilla/5.0 (Windows NT 10.0; Win64; x64) AppleWebKit/537.36 (KHTML, like Gecko) Chrome/131.0.0.0 Safari/537.36" version="24.8.6">
  <diagram name="Side-1" id="Y3Rt3_cyo68QelEqDQ5w">
    <mxGraphModel dx="1434" dy="744" grid="0" gridSize="10" guides="1" tooltips="1" connect="1" arrows="1" fold="1" page="1" pageScale="1" pageWidth="1169" pageHeight="827" math="0" shadow="0">
      <root>
        <mxCell id="0" />
        <mxCell id="1" parent="0" />
        <mxCell id="-CYkV8Z3KFbO473gOBjS-13" value="" style="edgeStyle=orthogonalEdgeStyle;rounded=0;orthogonalLoop=1;jettySize=auto;html=1;" edge="1" parent="1" source="-CYkV8Z3KFbO473gOBjS-1" target="-CYkV8Z3KFbO473gOBjS-12">
          <mxGeometry relative="1" as="geometry" />
        </mxCell>
        <mxCell id="-CYkV8Z3KFbO473gOBjS-38" value="" style="edgeStyle=orthogonalEdgeStyle;rounded=0;orthogonalLoop=1;jettySize=auto;html=1;" edge="1" parent="1" source="-CYkV8Z3KFbO473gOBjS-1" target="-CYkV8Z3KFbO473gOBjS-37">
          <mxGeometry relative="1" as="geometry" />
        </mxCell>
        <mxCell id="-CYkV8Z3KFbO473gOBjS-1" value="Dashboard" style="rounded=1;whiteSpace=wrap;html=1;" vertex="1" parent="1">
          <mxGeometry x="316" y="301" width="120" height="60" as="geometry" />
        </mxCell>
        <mxCell id="-CYkV8Z3KFbO473gOBjS-2" value="Teacher" style="rounded=1;whiteSpace=wrap;html=1;" vertex="1" parent="1">
          <mxGeometry x="316" y="420" width="120" height="60" as="geometry" />
        </mxCell>
        <mxCell id="-CYkV8Z3KFbO473gOBjS-28" value="" style="edgeStyle=orthogonalEdgeStyle;rounded=0;orthogonalLoop=1;jettySize=auto;html=1;" edge="1" parent="1" source="-CYkV8Z3KFbO473gOBjS-4" target="-CYkV8Z3KFbO473gOBjS-27">
          <mxGeometry relative="1" as="geometry" />
        </mxCell>
        <mxCell id="-CYkV8Z3KFbO473gOBjS-4" value="Classroom" style="rounded=1;whiteSpace=wrap;html=1;" vertex="1" parent="1">
          <mxGeometry x="316" y="561" width="120" height="60" as="geometry" />
        </mxCell>
        <mxCell id="-CYkV8Z3KFbO473gOBjS-5" value="" style="endArrow=classic;html=1;rounded=0;exitX=0.5;exitY=1;exitDx=0;exitDy=0;entryX=0.5;entryY=0;entryDx=0;entryDy=0;" edge="1" parent="1" source="-CYkV8Z3KFbO473gOBjS-2" target="-CYkV8Z3KFbO473gOBjS-4">
          <mxGeometry width="50" height="50" relative="1" as="geometry">
            <mxPoint x="590" y="732" as="sourcePoint" />
            <mxPoint x="640" y="682" as="targetPoint" />
          </mxGeometry>
        </mxCell>
        <mxCell id="-CYkV8Z3KFbO473gOBjS-11" value="" style="endArrow=classic;html=1;rounded=0;exitX=0.992;exitY=0.9;exitDx=0;exitDy=0;entryX=0;entryY=0.5;entryDx=0;entryDy=0;exitPerimeter=0;" edge="1" parent="1" source="-CYkV8Z3KFbO473gOBjS-12" target="-CYkV8Z3KFbO473gOBjS-16">
          <mxGeometry width="50" height="50" relative="1" as="geometry">
            <mxPoint x="388" y="613" as="sourcePoint" />
            <mxPoint x="515" y="331" as="targetPoint" />
          </mxGeometry>
        </mxCell>
        <mxCell id="-CYkV8Z3KFbO473gOBjS-12" value="Site-administation" style="whiteSpace=wrap;html=1;rounded=1;" vertex="1" parent="1">
          <mxGeometry x="316" y="161" width="120" height="60" as="geometry" />
        </mxCell>
        <mxCell id="-CYkV8Z3KFbO473gOBjS-20" value="" style="edgeStyle=orthogonalEdgeStyle;rounded=0;orthogonalLoop=1;jettySize=auto;html=1;" edge="1" parent="1" source="-CYkV8Z3KFbO473gOBjS-16" target="-CYkV8Z3KFbO473gOBjS-19">
          <mxGeometry relative="1" as="geometry" />
        </mxCell>
        <mxCell id="-CYkV8Z3KFbO473gOBjS-22" value="" style="edgeStyle=orthogonalEdgeStyle;rounded=0;orthogonalLoop=1;jettySize=auto;html=1;" edge="1" parent="1" source="-CYkV8Z3KFbO473gOBjS-16" target="-CYkV8Z3KFbO473gOBjS-21">
          <mxGeometry relative="1" as="geometry" />
        </mxCell>
        <mxCell id="-CYkV8Z3KFbO473gOBjS-33" value="" style="edgeStyle=orthogonalEdgeStyle;rounded=0;orthogonalLoop=1;jettySize=auto;html=1;exitX=1;exitY=0.5;exitDx=0;exitDy=0;" edge="1" parent="1" source="-CYkV8Z3KFbO473gOBjS-12" target="-CYkV8Z3KFbO473gOBjS-32">
          <mxGeometry relative="1" as="geometry" />
        </mxCell>
        <mxCell id="-CYkV8Z3KFbO473gOBjS-16" value="Content" style="rounded=1;whiteSpace=wrap;html=1;" vertex="1" parent="1">
          <mxGeometry x="596" y="301" width="120" height="60" as="geometry" />
        </mxCell>
        <mxCell id="-CYkV8Z3KFbO473gOBjS-19" value="Videos" style="whiteSpace=wrap;html=1;rounded=1;" vertex="1" parent="1">
          <mxGeometry x="796" y="301" width="120" height="60" as="geometry" />
        </mxCell>
        <mxCell id="-CYkV8Z3KFbO473gOBjS-21" value="Quiz" style="rounded=1;whiteSpace=wrap;html=1;" vertex="1" parent="1">
          <mxGeometry x="596" y="441" width="120" height="60" as="geometry" />
        </mxCell>
        <mxCell id="-CYkV8Z3KFbO473gOBjS-27" value="Students" style="whiteSpace=wrap;html=1;rounded=1;" vertex="1" parent="1">
          <mxGeometry x="316" y="701" width="120" height="60" as="geometry" />
        </mxCell>
        <mxCell id="-CYkV8Z3KFbO473gOBjS-31" value="" style="endArrow=classic;startArrow=classic;html=1;rounded=0;exitX=0.5;exitY=0;exitDx=0;exitDy=0;entryX=0.5;entryY=1;entryDx=0;entryDy=0;" edge="1" parent="1" source="-CYkV8Z3KFbO473gOBjS-2" target="-CYkV8Z3KFbO473gOBjS-1">
          <mxGeometry width="50" height="50" relative="1" as="geometry">
            <mxPoint x="608" y="397" as="sourcePoint" />
            <mxPoint x="658" y="347" as="targetPoint" />
          </mxGeometry>
        </mxCell>
        <mxCell id="-CYkV8Z3KFbO473gOBjS-32" value="Course template" style="whiteSpace=wrap;html=1;rounded=1;" vertex="1" parent="1">
          <mxGeometry x="596" y="161" width="120" height="60" as="geometry" />
        </mxCell>
        <mxCell id="-CYkV8Z3KFbO473gOBjS-36" value="" style="endArrow=none;html=1;rounded=0;entryX=0.5;entryY=1;entryDx=0;entryDy=0;exitX=0.5;exitY=0;exitDx=0;exitDy=0;" edge="1" parent="1" source="-CYkV8Z3KFbO473gOBjS-16" target="-CYkV8Z3KFbO473gOBjS-32">
          <mxGeometry width="50" height="50" relative="1" as="geometry">
            <mxPoint x="608" y="497" as="sourcePoint" />
            <mxPoint x="658" y="447" as="targetPoint" />
          </mxGeometry>
        </mxCell>
        <mxCell id="-CYkV8Z3KFbO473gOBjS-37" value="Statistics" style="whiteSpace=wrap;html=1;rounded=1;" vertex="1" parent="1">
          <mxGeometry x="116" y="301" width="120" height="60" as="geometry" />
        </mxCell>
      </root>
    </mxGraphModel>
  </diagram>
</mxfile>
